<svg viewBox="0 0 400 300" xmlns="http://www.w3.org/2000/svg"><circle cx="300.53" cy="57.97" fill="#fff" r="14.92"/><path d="m300.54 73.39a15.43 15.43 0 0 1 -14.67-10.65 15.41 15.41 0 1 1 29.32-9.53 15.4 15.4 0 0 1 -14.65 20.18zm0-29.84a14.65 14.65 0 0 0 -4.47.71 14.43 14.43 0 1 0 18.17 9.26 14.45 14.45 0 0 0 -13.7-10z" fill="#231f20"/><path d="m300.54 70.4a12.42 12.42 0 0 1 -11.08-18.06 12.42 12.42 0 1 1 14.91 17.45 12.46 12.46 0 0 1 -3.83.61zm0-23.86a11.44 11.44 0 1 0 5.17 1.25 11.35 11.35 0 0 0 -5.17-1.25z" fill="#d1d3d4"/><path d="m303 63.61.51 1.55-1.24.4-.52-1.62c-2.55.53-4.73-.21-5.89-2.49l2.49-1.32a2.58 2.58 0 0 0 2.65 1.49l-.9-2.62c-2.24.16-4.73.23-5.44-2-.64-2 .64-3.84 3.24-4.79l-.45-1.4 1.23-.4.47 1.44c2.36-.46 4.37.28 5.4 2l-2.44 1.43a2.39 2.39 0 0 0 -2.2-1.06l.73 2.24c2.3-.21 5.12-.35 5.94 2.18.66 2-.69 3.96-3.58 4.97zm-3.65-7-.67-2.06c-1 .37-1.46.95-1.25 1.57s.88.52 1.88.46zm4.55 3c-.22-.68-1.2-.74-2.43-.67l.79 2.44c1.28-.51 1.81-1.18 1.6-1.82z" fill="#68e1fd"/><circle cx="312.69" cy="65.54" fill="#fff" r="14.92"/><path d="m312.68 81a15.28 15.28 0 0 1 -6-1.22 15.41 15.41 0 0 1 .19-28.48 15.41 15.41 0 1 1 5.8 29.7zm0-29.84a14.42 14.42 0 1 0 13.26 20 14.43 14.43 0 0 0 -13.26-20z" fill="#231f20"/><path d="m312.68 78a12.45 12.45 0 1 1 4.68-.92 12.39 12.39 0 0 1 -4.68.92zm0-23.86a11.43 11.43 0 1 0 10.53 15.86 11.43 11.43 0 0 0 -6.08-15 11.48 11.48 0 0 0 -4.44-.89z" fill="#d1d3d4"/><path d="m310.84 71.39-.64 1.5-1.19-.5.66-1.57c-2.28-1.27-3.43-3.25-2.82-5.74l2.75.63a2.59 2.59 0 0 0 1 2.87l1.1-2.58c-1.79-1.34-3.72-2.92-2.82-5 .8-1.91 3-2.48 5.58-1.5l.57-1.35 1.2.51-.59 1.34c2.09 1.2 3.12 3.08 2.79 5l-2.78-.51a2.38 2.38 0 0 0 -1-2.24l-.92 2.17c1.88 1.34 4.11 3.08 3.07 5.53-.8 2.05-3.09 2.6-5.96 1.44zm1.84-7.7.84-2c-1-.36-1.72-.24-2 .37s.36 1.02 1.16 1.63zm1.48 5.23c.28-.67-.41-1.34-1.39-2.1l-1 2.37c1.3.51 2.13.35 2.39-.27z" fill="#d1d3d4"/><circle cx="294.51" cy="65.52" fill="#fff" r="14.92"/><path d="m294.52 80.93a15.41 15.41 0 1 1 14.65-20.18 15.41 15.41 0 0 1 -14.65 20.18zm0-29.84a14.65 14.65 0 0 0 -4.47.71 14.34 14.34 0 1 0 4.47-.71z" fill="#231f20"/><path d="m294.51 77.94a12.43 12.43 0 1 1 3.84-.61 12.45 12.45 0 0 1 -3.84.61zm0-23.85a11.43 11.43 0 1 0 10.86 7.91 11.45 11.45 0 0 0 -10.85-7.89z" fill="#d1d3d4"/><path d="m296.94 71.15.5 1.55-1.23.4-.52-1.61c-2.56.52-4.73-.22-5.89-2.5l2.49-1.32a2.57 2.57 0 0 0 2.64 1.49l-.86-2.64c-2.23.16-4.72.23-5.43-2-.64-2 .64-3.84 3.24-4.79l-.46-1.39 1.24-.41.46 1.45c2.37-.47 4.38.27 5.4 2l-2.43 1.43a2.39 2.39 0 0 0 -2.21-1.06l.73 2.24c2.3-.21 5.13-.35 5.95 2.18.65 2.01-.69 3.97-3.62 4.98zm-3.65-7-.67-2.06c-1 .37-1.46.95-1.26 1.57s.93.52 1.93.46zm4.55 3c-.23-.68-1.2-.74-2.44-.67l.8 2.45c1.32-.52 1.85-1.19 1.64-1.83z" fill="#d1d3d4"/><path d="m163.71 206-3 10 28.59-.47c-1.54-6.67-14.68-9.52-14.68-9.52z" fill="#fff"/><path d="m160.76 216.46a.51.51 0 0 1 -.4-.2.53.53 0 0 1 -.08-.44l2.95-10a.49.49 0 0 1 .48-.36h11.06c.55.12 13.48 3 15.07 9.89a.49.49 0 0 1 -.1.42.51.51 0 0 1 -.38.2l-28.59.47zm3.32-10-2.65 9 27.26-.45c-2-5.67-13.22-8.34-14.08-8.53z" fill="#231f20"/><path d="m193.87 121.86c.3 0 6.14-1.94 6.14-1.94s3.32-6.14 4.23-5.13a2.84 2.84 0 0 1 .8 2s2.31-2.61 3.22-1.41 3 7.55 1.11 8.75-14.79 6.36-14.79 6.36z" fill="#fff"/><path d="m194.58 131a.52.52 0 0 1 -.5-.46l-.7-8.64a.47.47 0 0 1 .11-.36.46.46 0 0 1 .32-.17c.37-.08 3.7-1.16 5.86-1.86.92-1.69 3-5.18 4.21-5.32a.8.8 0 0 1 .73.27 3.69 3.69 0 0 1 .77 1.3 3.86 3.86 0 0 1 2.3-1.18 1.23 1.23 0 0 1 1 .51c.78 1 2.35 5.46 1.9 7.9a2.27 2.27 0 0 1 -.93 1.58c-1.93 1.21-14.34 6.18-14.86 6.39a.43.43 0 0 1 -.21.04zm-.17-8.76.61 7.54c2.61-1.05 12.47-5 14.08-6.06a1.34 1.34 0 0 0 .48-.91c.39-2.11-1.06-6.23-1.72-7.12a.24.24 0 0 0 -.22-.11c-.54 0-1.64.89-2.22 1.55a.51.51 0 0 1 -.58.13.5.5 0 0 1 -.3-.51 2.29 2.29 0 0 0 -.61-1.55c-.58.27-2.13 2.47-3.48 5a.49.49 0 0 1 -.28.23c-2.17.67-4.7 1.5-5.76 1.81z" fill="#231f20"/><path d="m88.38 236.13s-5.28 12.07-5 14.18 12.83 6.26 12.83 6.26l14.37.38a15 15 0 0 0 -3.75-4.46c-3.28-2.5-6.26-4.47-6.56-5.35a64.5 64.5 0 0 1 -1.05-6.79z" fill="#fff"/><path d="m110.6 257.45-14.37-.38h-.15c-3-1-12.85-4.42-13.17-6.67s4.47-13.2 5-14.45a.5.5 0 0 1 .64-.26l10.86 4.21a.54.54 0 0 1 .32.41 63.47 63.47 0 0 0 1 6.7c.17.5 2.08 1.91 3.94 3.28.76.56 1.59 1.17 2.44 1.82a15 15 0 0 1 3.94 4.75.51.51 0 0 1 -.1.43.53.53 0 0 1 -.35.16zm-14.28-1.38 13.43.35a16.61 16.61 0 0 0 -3.2-3.53c-.85-.65-1.67-1.25-2.44-1.82-2.72-2-4-3-4.29-3.77a55.24 55.24 0 0 1 -1-6.59l-10.14-3.94c-2 4.66-5 12.08-4.75 13.47.12 1.11 6.52 3.89 12.39 5.83z" fill="#231f20"/><path d="m156.87 97.21s16.29 29.85 18.7 29.25 19.72-6.33 19.72-6.33l3.06 10.37s-21.14 17.4-26.8 13.78c-8.91-5.7-14.68-21.64-14.68-21.64z" fill="#68e1fd"/><rect fill="#fff" height="29.91" rx="3.91" transform="matrix(.94170565 .33643791 -.33643791 .94170565 67.08 -14.32)" width="46.13" x="51.79" y="171.48"/><path d="m89.18 207.69a4.29 4.29 0 0 1 -1.49-.26l-36.07-12.88a4.45 4.45 0 0 1 -2.51-2.27 4.38 4.38 0 0 1 -.16-3.37l7.43-20.81a4.41 4.41 0 0 1 5.62-2.67l36.08 12.89a4.42 4.42 0 0 1 2.67 5.64l-7.43 20.81a4.41 4.41 0 0 1 -4.15 2.92zm-1.18-1.2a3.41 3.41 0 0 0 4.36-2.06l7.43-20.81a3.42 3.42 0 0 0 -2.06-4.36l-36.05-12.88a3.41 3.41 0 0 0 -4.36 2.06l-7.43 20.81a3.41 3.41 0 0 0 2.11 4.35z" fill="#231f20"/><path d="m94.35 186.59a.47.47 0 0 1 -.17 0l-34.35-12.3a.5.5 0 0 1 -.31-.64.5.5 0 0 1 .64-.3l34.35 12.27a.51.51 0 0 1 .31.64.52.52 0 0 1 -.47.33z" fill="#d1d3d4"/><path d="m87.91 175.72a.51.51 0 0 1 -.17 0l-16-5.74a.46.46 0 0 1 -.28-.25.48.48 0 0 1 0-.39l1.1-3.07a3.44 3.44 0 0 1 4.41-2.09l10.49 3.75a3.44 3.44 0 0 1 2.09 4.41l-1.1 3.07a.51.51 0 0 1 -.47.34zm-15.41-6.54 15.11 5.4.93-2.6a2.47 2.47 0 0 0 -1.49-3.14l-10.48-3.75a2.47 2.47 0 0 0 -3.14 1.49z" fill="#231f20"/><path d="m90.88 156.7s-1.11 3-1.66 5.17a29.17 29.17 0 0 0 -.41 6.23c-.59-.58-1.46-.66-2.07-1.16a7.88 7.88 0 0 1 -.39 2.65 2.68 2.68 0 0 1 -1.89 1.75 3.38 3.38 0 0 1 -1.41-.1c-1.68-.37-4.47-1.1-5-3a4.09 4.09 0 0 1 .23-2.26c1-3 5.83-11.08 6.63-12.38" fill="#fff"/><path d="m84.05 171.88a5 5 0 0 1 -1.11-.15c-1.42-.32-4.74-1.06-5.38-3.39a4.5 4.5 0 0 1 .24-2.54c1.08-3.35 6.62-12.41 6.68-12.5a.5.5 0 0 1 .85.53c-1.43 2.32-5.71 9.56-6.58 12.27a3.63 3.63 0 0 0 -.22 2c.42 1.55 2.7 2.24 4.63 2.67a2.91 2.91 0 0 0 1.21.1 2.24 2.24 0 0 0 1.52-1.44 7.9 7.9 0 0 0 .35-2.49.5.5 0 0 1 .3-.44.51.51 0 0 1 .52.07 3.19 3.19 0 0 0 .84.45l.38.16a31.82 31.82 0 0 1 .45-5.41c.55-2.2 1.64-5.1 1.68-5.22a.49.49 0 0 1 .64-.29.5.5 0 0 1 .3.64s-1.11 3-1.65 5.11a29.82 29.82 0 0 0 -.39 6.09.48.48 0 0 1 -.12.36.51.51 0 0 1 -.67.07h-.06a2.81 2.81 0 0 0 -.95-.54l-.3-.13a6.89 6.89 0 0 1 -.39 2 3.21 3.21 0 0 1 -2.26 2.06 2.21 2.21 0 0 1 -.51-.04z" fill="#231f20"/><path d="m127.1 115.78c-.85.47-31.63 37.26-35.8 44.65l-10-4.93s10.26-22.66 33.95-51.75c10.24-6.58 11.85 12.03 11.85 12.03z" fill="#68e1fd"/><path d="m155.51 144.28s32 13.21 32.8 19.81-10.7 41.91-10.7 41.91h-16.75s6.71-28.36 4.93-29.74-27.7-8.14-27.7-8.14l-37.16 74.48-15.53-4.19 27-89.94z" fill="#231f20"/><path d="m100.93 243.07h-.13l-15.53-4.16a.52.52 0 0 1 -.35-.63l27-89.94a.51.51 0 0 1 .43-.35l43.07-4.18a.5.5 0 0 1 .24 0c1.32.54 32.31 13.4 33.1 20.21.77 6.63-10.25 40.65-10.72 42.09a.47.47 0 0 1 -.47.34h-16.71a.48.48 0 0 1 -.39-.18.51.51 0 0 1 -.09-.43c3.17-13.4 5.94-28 5.08-29.26-1.2-.93-16.72-5.2-27.11-7.91l-37 74.11a.49.49 0 0 1 -.42.29zm-14.91-5 14.65 3.93 37-74.12a.5.5 0 0 1 .57-.26c2.67.7 26.08 6.82 27.89 8.22s-2.51 20.71-4.61 29.64h15.76c1.18-3.66 11.26-35.25 10.56-41.33-.59-5.15-23.46-15.67-32.38-19.35l-42.61 4.14z" fill="#231f20"/><path d="m155.51 144.28-36.36 6.72 9-53.71s5.49-3.94 9.94-3.92c5.31 0 9.84 4.1 11.62 5.12 3.29 1.92 5.8 45.79 5.8 45.79z" fill="#fff"/><path d="m119.15 151.54a.51.51 0 0 1 -.36-.15.5.5 0 0 1 -.14-.44l9-53.7a.49.49 0 0 1 .2-.32c.23-.17 5.64-4 10.19-4 4.41 0 8.25 2.71 10.55 4.31.52.37 1 .69 1.31.88 3.33 1.92 5.6 38.78 6 46.15a.5.5 0 0 1 -.41.52l-36.36 6.76zm9.49-53.92-8.88 52.8 35.24-6.55c-1-16.89-3.3-43.64-5.49-44.9-.37-.22-.84-.55-1.39-.93-2.19-1.53-5.87-4.11-10-4.13-3.85 0-8.54 3.09-9.48 3.71z" fill="#231f20"/><path d="m134.34 93.62c-.54.35 1 8.17 1.13 8.87.82 6.6 1.94 13.3 2.53 19.88.57 6.33-1.91 13.08-3.12 19.29a96.1 96.1 0 0 1 -6.5 20.68c-1.09 2.45-2.4 5-4.67 6.39a12.7 12.7 0 0 1 -5.76 1.55 49.88 49.88 0 0 1 -10.22-.19 9.48 9.48 0 0 1 -3.73-1.09c-2.32-1.41-3.16-4.49-2.72-7.17.7-4.19 3.44-8.2 4.68-12.34a92.76 92.76 0 0 0 2.76-13.31c1.33-9.16 1.77-18.41 3-27.58 5.72-11.39 12.64-10.81 22.62-14.98z" fill="#68e1fd"/><path d="m156.87 97.21c.22.05 3.73 13.4 3.8 14.31.88 10.32-3.38 19.36 1.88 29.16 2 3.71 4.55 7.1 6.55 10.81a2.16 2.16 0 0 1 .36 1.4 2.21 2.21 0 0 1 -1.19 1.27c-4.13 2.49-9.06 4.88-13.58 3.19a11.15 11.15 0 0 1 -6.08-6.44 29.51 29.51 0 0 1 -1.71-8.91c-1.07-13.54.21-26.92-1.11-40.39 0-.35-1-8.18-1.16-8.2a73.41 73.41 0 0 0 12.24 3.8z" fill="#68e1fd"/><path d="m142.37 99.25-2.76 2.69 2.24 1.54s-2.36 17.54-10.65 20-11.5 1.64-11.5 1.64l-4.57 5.92s7.1 2 7.61 2.2 15.56-3.34 17.93-12.67a96.88 96.88 0 0 0 2.77-16.77l1.5-1.88z" fill="#231f20"/><path d="m132.63 120.76a.49.49 0 0 1 -.4-.21l-7-9.52a.5.5 0 0 1 0-.65l4.2-4.33-5.24-1.36a.51.51 0 0 1 -.35-.35.5.5 0 0 1 .12-.48l6.45-6.86a.5.5 0 0 1 .73.69l-5.84 6.25 5.25 1.37a.53.53 0 0 1 .36.35.5.5 0 0 1 -.13.48l-4.49 4.65 6.71 9.21a.51.51 0 0 1 -.11.7.47.47 0 0 1 -.26.06z" fill="#231f20"/><path d="m113.29 154.06a.5.5 0 0 1 -.46-.3.52.52 0 0 1 .27-.66c4.16-1.71 11.71-5.06 11.79-5.09a.5.5 0 0 1 .66.26.49.49 0 0 1 -.26.65c-.07 0-7.64 3.39-11.81 5.11a.58.58 0 0 1 -.19.03z" fill="#231f20"/><path d="m151 117.72a.51.51 0 0 1 -.2 0 .51.51 0 0 1 -.25-.67l4.31-9.57-5.44-2.84a.52.52 0 0 1 -.25-.31.47.47 0 0 1 .06-.4l3.33-5.31-4.42-.88a.49.49 0 0 1 -.39-.58.51.51 0 0 1 .59-.4l5.13 1a.52.52 0 0 1 .36.3.5.5 0 0 1 0 .46l-3.47 5.48 5.38 2.81a.51.51 0 0 1 .22.65l-4.5 10a.49.49 0 0 1 -.46.26z" fill="#231f20"/><path d="m135.82 89.45a15.5 15.5 0 0 1 -14.47-2.68 9.76 9.76 0 0 0 3.45-3.77 4.84 4.84 0 0 1 -5.35 0 10.24 10.24 0 0 1 -3.6-4.31c3.73-.52 6.71-3.37 9-6.39s4.14-6.4 7-8.81a15.54 15.54 0 0 1 17.15-1.49c1.23.7 3.38 2 3.86 3.45.41 1.25-.4 2.07-.36 3.3.06 1.62.85 2.43.44 4.19a14.92 14.92 0 0 1 -2.38 4.81 39.63 39.63 0 0 1 -4 4.57 25.51 25.51 0 0 1 -10.74 7.13z" fill="#fff"/><path d="m131.06 90.69a16.49 16.49 0 0 1 -10-3.52.5.5 0 0 1 -.2-.42.46.46 0 0 1 .23-.4 9.24 9.24 0 0 0 2.41-2.21 5.79 5.79 0 0 1 -4.3-.73 10.56 10.56 0 0 1 -3.79-4.52.48.48 0 0 1 0-.45.49.49 0 0 1 .37-.27c3-.41 5.83-2.44 8.64-6.19.61-.81 1.19-1.65 1.77-2.49a30.54 30.54 0 0 1 5.35-6.4 16.13 16.13 0 0 1 17.73-1.57c1.5.86 3.57 2.18 4.08 3.73a3.42 3.42 0 0 1 -.11 2.22 3.65 3.65 0 0 0 -.22 1.22 6 6 0 0 0 .28 1.54 5.11 5.11 0 0 1 .15 2.78 15.55 15.55 0 0 1 -2.45 4.99 28.63 28.63 0 0 1 -3.14 3.66l-.93 1a25.85 25.85 0 0 1 -11 7.31 16.45 16.45 0 0 1 -4.87.72zm-8.84-3.91a14.85 14.85 0 0 0 13.45 2.22 24.91 24.91 0 0 0 10.53-7l.94-1a28 28 0 0 0 3-3.53 14.47 14.47 0 0 0 2.31-4.65 4.13 4.13 0 0 0 -.15-2.29 7.43 7.43 0 0 1 -.31-1.76 4.78 4.78 0 0 1 .26-1.55 2.42 2.42 0 0 0 .12-1.61c-.3-.91-1.52-2-3.63-3.18a15.08 15.08 0 0 0 -16.59 1.47 30 30 0 0 0 -5.17 6.2c-.59.85-1.18 1.7-1.79 2.52-2.77 3.69-5.59 5.82-8.61 6.46a8.94 8.94 0 0 0 3.1 3.52 4.35 4.35 0 0 0 4.79 0 .5.5 0 0 1 .75.63 10.24 10.24 0 0 1 -3 3.55z" fill="#231f20"/><path d="m152.17 78.59s2.82 5.31 2 6.27-3 .07-3 .07" fill="#fff"/><path d="m153 85.81a5.71 5.71 0 0 1 -2-.42.5.5 0 0 1 .38-.92c.61.24 2 .59 2.41.08.26-.46-.72-3.13-2.09-5.72a.5.5 0 0 1 .2-.68.5.5 0 0 1 .68.21c1.11 2.09 2.85 5.75 2 6.82a1.93 1.93 0 0 1 -1.58.63z" fill="#231f20"/><path d="m152.2 67.51c1.93 1.92.87 9.9.63 12.25-.34 3.31-.76 6.62-1.26 9.91-.31 2.09-5.75 1.61-6.65.89l.05 8.38s-2.67.46-6.87-2-4.1-3.48-4.1-3.48l1.28-9.54s3.59.37 6.12-3.71 3.08-10.66 3.08-10.66 5.83-3.91 7.72-2.04z" fill="#fff"/><path d="m144.38 99.47a13.18 13.18 0 0 1 -6.53-2.09c-4-2.35-4.4-3.55-4.38-3.95l1.28-9.58a.51.51 0 0 1 .55-.43c.13 0 3.32.27 5.65-3.47 2.44-3.93 3-10.38 3-10.44a.57.57 0 0 1 .22-.38c.64-.42 6.26-4.07 8.38-2 1.72 1.71 1.4 7 .85 12l-.07.63c-.35 3.32-.77 6.66-1.26 9.93a2 2 0 0 1 -1.43 1.54 9.46 9.46 0 0 1 -5.22 0l.05 7.61a.49.49 0 0 1 -.41.5 4 4 0 0 1 -.68.13zm-9.9-6c.07.18.61 1.17 3.88 3.08a12.36 12.36 0 0 0 6.11 2l-.05-7.91a.5.5 0 0 1 .28-.45.51.51 0 0 1 .53.06 8 8 0 0 0 5.05.18c.48-.19.75-.44.8-.76.49-3.26.91-6.58 1.25-9.88l.07-.64c.29-2.62 1.06-9.6-.56-11.2-1.12-1.12-4.75.57-6.91 2-.13 1.25-.81 6.9-3.13 10.64a7.57 7.57 0 0 1 -6.11 3.94z" fill="#231f20"/><path d="m151.73 87.19a3.91 3.91 0 0 1 -4.19-2.9" fill="#fff"/><path d="m151.39 87.71a4.44 4.44 0 0 1 -4.32-3.26.51.51 0 0 1 .31-.64.5.5 0 0 1 .63.31 3.41 3.41 0 0 0 3.65 2.57.5.5 0 0 1 .56.43.49.49 0 0 1 -.41.56 2.83 2.83 0 0 1 -.42.03z" fill="#231f20"/><path d="m145.61 80.11a4.43 4.43 0 0 0 -.71-2.37 6.72 6.72 0 0 0 -1.05-1.62 2.2 2.2 0 0 0 -1.74-.71 2 2 0 0 0 -1.4.9 3.93 3.93 0 0 0 -.57 1.61 7.12 7.12 0 0 0 2.68 6.61l-.17-.21" fill="#fff"/><path d="m142.82 85a.48.48 0 0 1 -.3-.11 7.68 7.68 0 0 1 -2.87-7.09 4.3 4.3 0 0 1 .65-1.8 2.52 2.52 0 0 1 1.76-1.12 2.65 2.65 0 0 1 2.14.86 7.18 7.18 0 0 1 1.15 1.74 5 5 0 0 1 .76 2.64.5.5 0 0 1 -1-.09 4 4 0 0 0 -.65-2.09 6.07 6.07 0 0 0 -1-1.49 1.66 1.66 0 0 0 -1.32-.57 1.49 1.49 0 0 0 -1 .69 3.24 3.24 0 0 0 -.49 1.39 6.65 6.65 0 0 0 2.11 5.84.49.49 0 0 1 .3.19l.17.21a.5.5 0 0 1 -.05.66.47.47 0 0 1 -.36.14z" fill="#231f20"/><path d="m144.92 90.56a8.88 8.88 0 0 1 -3.86-3.2s-.3 5.06 3.88 6.93z" fill="#231f20"/><path d="m144.94 94.79a.45.45 0 0 1 -.2 0c-4.45-2-4.2-7.2-4.18-7.42a.5.5 0 0 1 .93-.22 8.47 8.47 0 0 0 3.62 3 .5.5 0 0 1 .31.46v3.73a.48.48 0 0 1 -.23.42.5.5 0 0 1 -.25.03zm-3.27-5.79a6.36 6.36 0 0 0 2.77 4.49v-2.58a10.72 10.72 0 0 1 -2.77-1.91z" fill="#231f20"/><ellipse cx="150.5" cy="76.12" fill="#231f20" rx="1.19" ry=".47" transform="matrix(.26016748 -.96556351 .96556351 .26016748 37.85 201.63)"/><path d="m151.59 75.28-2.21-1.29" fill="#fff"/><path d="m151.59 75.78a.55.55 0 0 1 -.25-.07l-2.21-1.29a.5.5 0 1 1 .5-.86l2.21 1.28a.51.51 0 0 1 .18.69.5.5 0 0 1 -.43.25z" fill="#231f20"/><path d="m104.2 141.27 16.48-18.63" fill="#fff"/><path d="m104.2 141.77a.46.46 0 0 1 -.33-.13.49.49 0 0 1 -.05-.7l16.49-18.63a.49.49 0 0 1 .7 0 .51.51 0 0 1 0 .71l-16.44 18.58a.51.51 0 0 1 -.37.17z" fill="#231f20"/><path d="m283.05 110.48c-25.05-8.48-22.85-34.41-22.82-34.67l.21-2.22h15.27v4.9h-10.66c.1 5.83 2.05 21.39 19.58 27.34z" fill="#fff"/><path d="m283.05 111a.41.41 0 0 1 -.16 0c-25.44-8.7-23.19-35-23.16-35.24l.21-2.22a.5.5 0 0 1 .5-.45h15.27a.5.5 0 0 1 .5.5v4.9a.5.5 0 0 1 -.5.5h-10.15c.21 6.43 2.62 20.73 19.23 26.37a.51.51 0 0 1 .29.25.58.58 0 0 1 0 .39l-1.58 4.64a.49.49 0 0 1 -.45.36zm-22.16-36.91-.17 1.77c0 .25-2.12 25.45 22 34l1.25-3.7c-17.2-6.16-19.32-21.35-19.42-27.66a.54.54 0 0 1 .14-.36.53.53 0 0 1 .36-.15h10.16v-3.9z" fill="#231f20"/><path d="m318 110.48-1.58-4.65c17.52-6 19.48-21.5 19.58-27.34h-10.65v-4.9h15.27l.21 2.22c.03.26 2.17 26.19-22.83 34.67z" fill="#fff"/><path d="m318 111a.54.54 0 0 1 -.22 0 .51.51 0 0 1 -.25-.29l-1.53-4.71a.5.5 0 0 1 .31-.63c16.6-5.64 19-19.94 19.23-26.37h-10.19a.5.5 0 0 1 -.5-.5v-4.9a.5.5 0 0 1 .5-.5h15.27a.51.51 0 0 1 .5.45l.21 2.22c0 .27 2.19 26.58-23.16 35.19a.45.45 0 0 1 -.17.04zm-.95-4.84 1.26 3.7c24.09-8.52 22-33.73 22-34l-.16-1.76h-14.3v3.9h10.15a.55.55 0 0 1 .36.15.54.54 0 0 1 .14.36c-.1 6.3-2.21 21.49-19.44 27.63z" fill="#231f20"/><path d="m326.46 69-51.85-.46s-.46 22.25 5.21 36.36c4.72 11.74 10.43 16.36 15.28 18.24a13.8 13.8 0 0 1 1 5.77 29 29 0 0 1 -2.76 9.78h14.38s-3-4.94-2.88-9.66a26.75 26.75 0 0 1 .89-5.87c5.49-2.64 12.33-9.35 16-19 4.88-13.08 4.73-35.16 4.73-35.16z" fill="#fff"/><path d="m307.72 139.17h-14.38a.52.52 0 0 1 -.43-.23.5.5 0 0 1 0-.49 28.49 28.49 0 0 0 2.71-9.58 13 13 0 0 0 -.89-5.36c-6.28-2.53-11.45-8.73-15.35-18.44-5.65-14-5.26-36.33-5.25-36.56a.49.49 0 0 1 .5-.49l51.86.46a.51.51 0 0 1 .49.5c0 .22.1 22.34-4.79 35.31-3.84 10.22-11 16.69-16 19.2a25.11 25.11 0 0 0 -.82 5.53c-.11 4.52 2.78 9.35 2.81 9.4a.49.49 0 0 1 -.43.75zm-13.6-1h12.75c-.84-1.59-2.62-5.41-2.53-9.17a26.68 26.68 0 0 1 .91-6 .47.47 0 0 1 .26-.32c4.88-2.35 11.93-8.67 15.73-18.75 4.41-11.73 4.7-31.13 4.72-34.46l-50.86-.47c0 3.35.08 23 5.19 35.67 3.83 9.54 8.88 15.59 15 18a.51.51 0 0 1 .28.28 14 14 0 0 1 1 6 27.94 27.94 0 0 1 -2.45 9.22z" fill="#231f20"/><path d="m283.18 138.21h34.7a2.38 2.38 0 0 1 2.38 2.38v8.65a0 0 0 0 1 0 0h-39.46a0 0 0 0 1 0 0v-8.65a2.38 2.38 0 0 1 2.38-2.38z" fill="#fff"/><path d="m320.26 149.75h-39.46a.5.5 0 0 1 -.5-.5v-8.66a2.89 2.89 0 0 1 2.88-2.88h34.7a2.89 2.89 0 0 1 2.88 2.88v8.66a.5.5 0 0 1 -.5.5zm-39-1h38.46v-8.16a1.88 1.88 0 0 0 -1.88-1.88h-34.7a1.88 1.88 0 0 0 -1.88 1.88z" fill="#231f20"/><rect fill="#fff" height="5.35" rx="1.93" width="51.2" x="274.93" y="148.63"/><path d="m324.2 154.48h-47.34a2.43 2.43 0 0 1 -2.43-2.44v-1.48a2.43 2.43 0 0 1 2.43-2.43h47.34a2.43 2.43 0 0 1 2.43 2.43v1.44a2.43 2.43 0 0 1 -2.43 2.48zm-47.34-5.35a1.43 1.43 0 0 0 -1.43 1.43v1.44a1.44 1.44 0 0 0 1.43 1.44h47.34a1.44 1.44 0 0 0 1.43-1.44v-1.48a1.43 1.43 0 0 0 -1.43-1.43z" fill="#231f20"/><path d="m115.23 257.45h-66.1a.5.5 0 0 1 -.5-.5.5.5 0 0 1 .5-.5h65.6v-17.45a.5.5 0 0 1 .5-.5h44.1v-22.73a.5.5 0 0 1 .5-.5h49.81v-35.16a.5.5 0 0 1 .5-.5h41.57v-25.61a.5.5 0 0 1 .5-.5h98.66a.5.5 0 0 1 .5.5.5.5 0 0 1 -.5.5h-98.16v25.63a.5.5 0 0 1 -.5.5h-41.57v35.16a.5.5 0 0 1 -.5.5h-49.81v22.71a.51.51 0 0 1 -.5.5h-44.1v17.5a.5.5 0 0 1 -.5.45z" fill="#231f20"/><path d="m158.8 131h-.11a.51.51 0 0 1 -.38-.6c0-.16 3.6-15.82 1.24-25.69a.5.5 0 1 1 1-.23c2.41 10.1-1.08 25.49-1.23 26.14a.51.51 0 0 1 -.52.38z" fill="#231f20"/><path d="m201.82 124.64a.5.5 0 0 1 -.22-.94 2.53 2.53 0 0 0 1.12-2 3 3 0 0 1 0-1.69.5.5 0 0 1 .52-.34.52.52 0 0 1 .45.44 8.07 8.07 0 0 1 0 1.45l.07.11a1.47 1.47 0 0 0 1.24.47.49.49 0 0 0 .49-.2c.51-.76-.25-3.32-1-4.88a.5.5 0 0 1 .92-.41c.32.71 1.86 4.35.88 5.84a1.51 1.51 0 0 1 -1.35.65 2.93 2.93 0 0 1 -1.51-.39 3 3 0 0 1 -1.47 1.89.48.48 0 0 1 -.14 0z" fill="#231f20"/><path d="m300.53 76.91 4.91 9.96 10.99 1.59-7.95 7.75 1.88 10.95-9.83-5.17-9.83 5.17 1.88-10.95-7.95-7.75 10.99-1.59z" fill="#68e1fd"/><rect fill="#fff" height="5.56" rx=".93" width="22.84" x="315.95" y="147.68"/><path d="m337.86 153.74h-21a1.43 1.43 0 0 1 -1.43-1.43v-3.71a1.43 1.43 0 0 1 1.43-1.42h21a1.43 1.43 0 0 1 1.43 1.42v3.71a1.43 1.43 0 0 1 -1.43 1.43zm-21-5.56a.42.42 0 0 0 -.43.42v3.71a.43.43 0 0 0 .43.43h21a.43.43 0 0 0 .43-.43v-3.71a.42.42 0 0 0 -.43-.42z" fill="#231f20"/><g fill="#d1d3d4"><path d="m318.23 152.73a.5.5 0 0 1 -.5-.5v-3.53a.5.5 0 0 1 .5-.5.5.5 0 0 1 .5.5v3.53a.5.5 0 0 1 -.5.5z"/><path d="m320.84 152.73a.5.5 0 0 1 -.5-.5v-3.53a.5.5 0 0 1 .5-.5.5.5 0 0 1 .5.5v3.53a.5.5 0 0 1 -.5.5z"/><path d="m323.45 152.73a.5.5 0 0 1 -.5-.5v-3.53a.5.5 0 0 1 .5-.5.5.5 0 0 1 .5.5v3.53a.5.5 0 0 1 -.5.5z"/><path d="m326.06 152.73a.5.5 0 0 1 -.5-.5v-3.53a.5.5 0 0 1 .5-.5.5.5 0 0 1 .5.5v3.53a.5.5 0 0 1 -.5.5z"/><path d="m328.67 152.73a.5.5 0 0 1 -.5-.5v-3.53a.5.5 0 0 1 .5-.5.5.5 0 0 1 .5.5v3.53a.5.5 0 0 1 -.5.5z"/><path d="m331.29 152.73a.5.5 0 0 1 -.5-.5v-3.53a.5.5 0 0 1 .5-.5.5.5 0 0 1 .5.5v3.53a.5.5 0 0 1 -.5.5z"/><path d="m333.9 152.73a.5.5 0 0 1 -.5-.5v-3.53a.5.5 0 0 1 .5-.5.5.5 0 0 1 .5.5v3.53a.5.5 0 0 1 -.5.5z"/><path d="m336.51 152.73a.5.5 0 0 1 -.5-.5v-3.53a.5.5 0 0 1 .5-.5.5.5 0 0 1 .5.5v3.53a.5.5 0 0 1 -.5.5z"/></g><rect fill="#fff" height="5.56" rx=".93" width="22.84" x="311.71" y="142.11"/><path d="m333.62 148.18h-21a1.44 1.44 0 0 1 -1.43-1.43v-3.75a1.43 1.43 0 0 1 1.43-1.43h21a1.43 1.43 0 0 1 1.43 1.43v3.71a1.44 1.44 0 0 1 -1.43 1.47zm-21-5.57a.43.43 0 0 0 -.43.43v3.71a.43.43 0 0 0 .43.43h21a.43.43 0 0 0 .43-.43v-3.75a.43.43 0 0 0 -.43-.43z" fill="#231f20"/><path d="m314 147.17a.5.5 0 0 1 -.5-.5v-3.54a.5.5 0 0 1 1 0v3.54a.5.5 0 0 1 -.5.5z" fill="#d1d3d4"/><path d="m316.6 147.17a.5.5 0 0 1 -.5-.5v-3.54a.51.51 0 0 1 .5-.5.5.5 0 0 1 .5.5v3.54a.5.5 0 0 1 -.5.5z" fill="#d1d3d4"/><path d="m319.21 147.17a.5.5 0 0 1 -.5-.5v-3.54a.51.51 0 0 1 .5-.5.5.5 0 0 1 .5.5v3.54a.5.5 0 0 1 -.5.5z" fill="#d1d3d4"/><path d="m321.82 147.17a.5.5 0 0 1 -.5-.5v-3.54a.51.51 0 0 1 .5-.5.5.5 0 0 1 .5.5v3.54a.5.5 0 0 1 -.5.5z" fill="#d1d3d4"/><path d="m324.43 147.17a.5.5 0 0 1 -.5-.5v-3.54a.51.51 0 0 1 .5-.5.5.5 0 0 1 .5.5v3.54a.5.5 0 0 1 -.5.5z" fill="#d1d3d4"/><path d="m327 147.17a.5.5 0 0 1 -.5-.5v-3.54a.51.51 0 0 1 .5-.5.5.5 0 0 1 .5.5v3.54a.5.5 0 0 1 -.5.5z" fill="#d1d3d4"/><path d="m329.65 147.17a.5.5 0 0 1 -.5-.5v-3.54a.51.51 0 0 1 .5-.5.5.5 0 0 1 .5.5v3.54a.5.5 0 0 1 -.5.5z" fill="#d1d3d4"/><path d="m332.26 147.17a.5.5 0 0 1 -.5-.5v-3.54a.51.51 0 0 1 .5-.5.5.5 0 0 1 .5.5v3.54a.5.5 0 0 1 -.5.5z" fill="#d1d3d4"/><rect fill="#fff" height="5.56" rx=".93" width="22.84" x="312.69" y="136.55"/><path d="m334.6 142.61h-21a1.43 1.43 0 0 1 -1.42-1.42v-3.71a1.43 1.43 0 0 1 1.42-1.43h21a1.43 1.43 0 0 1 1.43 1.43v3.71a1.43 1.43 0 0 1 -1.43 1.42zm-21-5.56a.43.43 0 0 0 -.42.43v3.71a.42.42 0 0 0 .42.42h21a.43.43 0 0 0 .43-.42v-3.71a.44.44 0 0 0 -.43-.43z" fill="#231f20"/><path d="m315 141.61a.5.5 0 0 1 -.5-.5v-3.54a.5.5 0 0 1 1 0v3.54a.5.5 0 0 1 -.5.5z" fill="#d1d3d4"/><path d="m317.58 141.61a.5.5 0 0 1 -.5-.5v-3.54a.5.5 0 0 1 1 0v3.54a.5.5 0 0 1 -.5.5z" fill="#d1d3d4"/><path d="m320.19 141.61a.51.51 0 0 1 -.5-.5v-3.54a.51.51 0 0 1 .5-.5.5.5 0 0 1 .5.5v3.54a.5.5 0 0 1 -.5.5z" fill="#d1d3d4"/><path d="m322.8 141.61a.51.51 0 0 1 -.5-.5v-3.54a.51.51 0 0 1 .5-.5.5.5 0 0 1 .5.5v3.54a.5.5 0 0 1 -.5.5z" fill="#d1d3d4"/><path d="m325.41 141.61a.51.51 0 0 1 -.5-.5v-3.54a.51.51 0 0 1 .5-.5.5.5 0 0 1 .5.5v3.54a.5.5 0 0 1 -.5.5z" fill="#d1d3d4"/><path d="m328 141.61a.51.51 0 0 1 -.5-.5v-3.54a.51.51 0 0 1 .5-.5.5.5 0 0 1 .5.5v3.54a.5.5 0 0 1 -.5.5z" fill="#d1d3d4"/><path d="m330.63 141.61a.51.51 0 0 1 -.5-.5v-3.54a.51.51 0 0 1 .5-.5.5.5 0 0 1 .5.5v3.54a.5.5 0 0 1 -.5.5z" fill="#d1d3d4"/><path d="m333.24 141.61a.51.51 0 0 1 -.5-.5v-3.54a.51.51 0 0 1 .5-.5.5.5 0 0 1 .5.5v3.54a.5.5 0 0 1 -.5.5z" fill="#d1d3d4"/><rect fill="#fff" height="5.56" rx=".93" width="22.84" x="309.42" y="130.99"/><path d="m331.34 137.05h-21a1.43 1.43 0 0 1 -1.43-1.43v-3.7a1.43 1.43 0 0 1 1.43-1.43h21a1.43 1.43 0 0 1 1.42 1.43v3.7a1.43 1.43 0 0 1 -1.42 1.43zm-21-5.56a.43.43 0 0 0 -.43.43v3.7a.43.43 0 0 0 .43.43h21a.42.42 0 0 0 .42-.43v-3.7a.42.42 0 0 0 -.42-.43z" fill="#231f20"/><path d="m311.71 136.05a.5.5 0 0 1 -.5-.5v-3.55a.5.5 0 0 1 .5-.5.51.51 0 0 1 .5.5v3.54a.51.51 0 0 1 -.5.51z" fill="#d1d3d4"/><path d="m314.32 136.05a.5.5 0 0 1 -.5-.5v-3.55a.5.5 0 0 1 .5-.5.51.51 0 0 1 .5.5v3.54a.51.51 0 0 1 -.5.51z" fill="#d1d3d4"/><path d="m316.93 136.05a.5.5 0 0 1 -.5-.5v-3.55a.5.5 0 0 1 .5-.5.51.51 0 0 1 .5.5v3.54a.51.51 0 0 1 -.5.51z" fill="#d1d3d4"/><path d="m319.54 136.05a.5.5 0 0 1 -.5-.5v-3.55a.5.5 0 0 1 .5-.5.51.51 0 0 1 .5.5v3.54a.51.51 0 0 1 -.5.51z" fill="#d1d3d4"/><path d="m322.15 136.05a.5.5 0 0 1 -.5-.5v-3.55a.5.5 0 0 1 .5-.5.51.51 0 0 1 .5.5v3.54a.51.51 0 0 1 -.5.51z" fill="#d1d3d4"/><path d="m324.76 136.05a.5.5 0 0 1 -.5-.5v-3.55a.5.5 0 0 1 1 0v3.54a.5.5 0 0 1 -.5.51z" fill="#d1d3d4"/><path d="m327.37 136.05a.5.5 0 0 1 -.5-.5v-3.55a.5.5 0 0 1 1 0v3.54a.5.5 0 0 1 -.5.51z" fill="#d1d3d4"/><path d="m330 136.05a.5.5 0 0 1 -.5-.5v-3.55a.5.5 0 0 1 1 0v3.54a.5.5 0 0 1 -.5.51z" fill="#d1d3d4"/><rect fill="#fff" height="5.56" rx=".93" width="22.84" x="312.69" y="125.43"/><path d="m334.6 131.49h-21a1.43 1.43 0 0 1 -1.42-1.43v-3.7a1.43 1.43 0 0 1 1.42-1.43h21a1.43 1.43 0 0 1 1.43 1.43v3.7a1.43 1.43 0 0 1 -1.43 1.43zm-21-5.56a.42.42 0 0 0 -.42.43v3.7a.42.42 0 0 0 .42.43h21a.43.43 0 0 0 .43-.43v-3.7a.43.43 0 0 0 -.43-.43z" fill="#231f20"/><path d="m315 130.49a.5.5 0 0 1 -.5-.5v-3.54a.5.5 0 1 1 1 0v3.55a.5.5 0 0 1 -.5.49z" fill="#d1d3d4"/><path d="m317.58 130.49a.5.5 0 0 1 -.5-.5v-3.54a.5.5 0 1 1 1 0v3.55a.5.5 0 0 1 -.5.49z" fill="#d1d3d4"/><path d="m320.19 130.49a.51.51 0 0 1 -.5-.5v-3.54a.51.51 0 0 1 .5-.5.5.5 0 0 1 .5.5v3.55a.5.5 0 0 1 -.5.49z" fill="#d1d3d4"/><path d="m322.8 130.49a.51.51 0 0 1 -.5-.5v-3.54a.51.51 0 0 1 .5-.5.5.5 0 0 1 .5.5v3.55a.5.5 0 0 1 -.5.49z" fill="#d1d3d4"/><path d="m325.41 130.49a.51.51 0 0 1 -.5-.5v-3.54a.51.51 0 0 1 .5-.5.5.5 0 0 1 .5.5v3.55a.5.5 0 0 1 -.5.49z" fill="#d1d3d4"/><path d="m328 130.49a.51.51 0 0 1 -.5-.5v-3.54a.51.51 0 0 1 .5-.5.5.5 0 0 1 .5.5v3.55a.5.5 0 0 1 -.5.49z" fill="#d1d3d4"/><path d="m330.63 130.49a.51.51 0 0 1 -.5-.5v-3.54a.51.51 0 0 1 .5-.5.5.5 0 0 1 .5.5v3.55a.5.5 0 0 1 -.5.49z" fill="#d1d3d4"/><path d="m333.24 130.49a.51.51 0 0 1 -.5-.5v-3.54a.51.51 0 0 1 .5-.5.5.5 0 0 1 .5.5v3.55a.5.5 0 0 1 -.5.49z" fill="#d1d3d4"/><rect fill="#fff" height="5.56" rx=".93" transform="matrix(-1 0 0 -1 543.97 300.91)" width="22.84" x="260.56" y="147.68"/><path d="m282.48 153.74h-21a1.43 1.43 0 0 1 -1.43-1.43v-3.71a1.43 1.43 0 0 1 1.43-1.42h21a1.43 1.43 0 0 1 1.43 1.42v3.71a1.44 1.44 0 0 1 -1.43 1.43zm-21-5.56a.43.43 0 0 0 -.43.42v3.71a.44.44 0 0 0 .43.43h21a.44.44 0 0 0 .43-.43v-3.71a.43.43 0 0 0 -.43-.42z" fill="#231f20"/><path d="m281.12 152.73a.5.5 0 0 1 -.5-.5v-3.53a.5.5 0 0 1 1 0v3.53a.5.5 0 0 1 -.5.5z" fill="#d1d3d4"/><path d="m278.51 152.73a.5.5 0 0 1 -.5-.5v-3.53a.5.5 0 0 1 1 0v3.53a.5.5 0 0 1 -.5.5z" fill="#d1d3d4"/><path d="m275.9 152.73a.5.5 0 0 1 -.5-.5v-3.53a.5.5 0 0 1 1 0v3.53a.5.5 0 0 1 -.5.5z" fill="#d1d3d4"/><path d="m273.29 152.73a.5.5 0 0 1 -.5-.5v-3.53a.5.5 0 0 1 1 0v3.53a.5.5 0 0 1 -.5.5z" fill="#d1d3d4"/><path d="m270.68 152.73a.5.5 0 0 1 -.5-.5v-3.53a.5.5 0 0 1 1 0v3.53a.5.5 0 0 1 -.5.5z" fill="#d1d3d4"/><path d="m268.07 152.73a.5.5 0 0 1 -.5-.5v-3.53a.5.5 0 0 1 .5-.5.5.5 0 0 1 .5.5v3.53a.5.5 0 0 1 -.5.5z" fill="#d1d3d4"/><path d="m265.46 152.73a.5.5 0 0 1 -.5-.5v-3.53a.5.5 0 0 1 .5-.5.5.5 0 0 1 .5.5v3.53a.5.5 0 0 1 -.5.5z" fill="#d1d3d4"/><path d="m262.85 152.73a.5.5 0 0 1 -.5-.5v-3.53a.5.5 0 0 1 .5-.5.5.5 0 0 1 .5.5v3.53a.5.5 0 0 1 -.5.5z" fill="#d1d3d4"/><rect fill="#fff" height="5.56" rx=".93" transform="matrix(-1 0 0 -1 552.45 289.79)" width="22.84" x="264.81" y="142.11"/><path d="m286.72 148.18h-21a1.43 1.43 0 0 1 -1.42-1.43v-3.75a1.43 1.43 0 0 1 1.42-1.43h21a1.43 1.43 0 0 1 1.43 1.43v3.71a1.44 1.44 0 0 1 -1.43 1.47zm-21-5.57a.43.43 0 0 0 -.42.43v3.71a.43.43 0 0 0 .42.43h21a.43.43 0 0 0 .43-.43v-3.75a.43.43 0 0 0 -.43-.43z" fill="#231f20"/><path d="m285.36 147.17a.5.5 0 0 1 -.5-.5v-3.54a.51.51 0 0 1 .5-.5.5.5 0 0 1 .5.5v3.54a.5.5 0 0 1 -.5.5z" fill="#d1d3d4"/><path d="m282.75 147.17a.5.5 0 0 1 -.5-.5v-3.54a.51.51 0 0 1 .5-.5.5.5 0 0 1 .5.5v3.54a.5.5 0 0 1 -.5.5z" fill="#d1d3d4"/><path d="m280.14 147.17a.5.5 0 0 1 -.5-.5v-3.54a.51.51 0 0 1 .5-.5.5.5 0 0 1 .5.5v3.54a.5.5 0 0 1 -.5.5z" fill="#d1d3d4"/><path d="m277.53 147.17a.5.5 0 0 1 -.5-.5v-3.54a.5.5 0 0 1 1 0v3.54a.5.5 0 0 1 -.5.5z" fill="#d1d3d4"/><path d="m274.92 147.17a.5.5 0 0 1 -.5-.5v-3.54a.5.5 0 0 1 1 0v3.54a.5.5 0 0 1 -.5.5z" fill="#d1d3d4"/><path d="m272.31 147.17a.5.5 0 0 1 -.5-.5v-3.54a.5.5 0 0 1 1 0v3.54a.5.5 0 0 1 -.5.5z" fill="#d1d3d4"/><path d="m269.7 147.17a.5.5 0 0 1 -.5-.5v-3.54a.5.5 0 0 1 1 0v3.54a.5.5 0 0 1 -.5.5z" fill="#d1d3d4"/><path d="m267.09 147.17a.5.5 0 0 1 -.5-.5v-3.54a.5.5 0 0 1 1 0v3.54a.5.5 0 0 1 -.5.5z" fill="#d1d3d4"/></svg>