<svg height="64" viewBox="0 0 64 64" width="64" xmlns="http://www.w3.org/2000/svg"><g fill="none" fill-rule="evenodd"><path d="m7.10517764 39.9436912c.26836775-1.073471 1.37823806-1.9436912 2.48277441-1.9436912h45.00629675c1.1028307 0 2.2139395.8683514 2.4827745 1.9436912l5.0281543 20.1126176c.2683678 1.073471-.3999064 1.9436912-1.5089756 1.9436912h-57.01020315c-1.10175197 0-1.77781057-.8683514-1.5089756-1.9436912z" fill="#595959"/><path d="m10.6 40.974h43.004l3.479 16.067h-49.984z" fill="#b4dffb"/><path d="m19.187 43.041h24.818l2.591 10h-30z" fill="#4796e7"/><path d="m48 26v-12h-32v12c0 1.6568542 7.163444 3 16 3s16-1.3431458 16-3z" fill="#595959"/><path d="m8 13.907 24.718-8.907 24.302 8.907-24.302 7.394z" fill="#868686"/><g fill-rule="nonzero"><path d="m21.967 13.792-.383-1.963-7.584 2.547v16.72h2v-15.073z" fill="#f1be27"/><path d="m14.135 29.631-2.853 5.615 1.783.906 2.853-5.615z" fill="#ff462b"/><path d="m14.202 30.629 2.611 5.044 1.776-.919-2.611-5.044z" fill="#ff462b"/><path d="m14.116 30.594-.005 5.999 2 .001.005-5.999z" fill="#ff462b"/></g></g></svg>